<?xml version="1.0" encoding="UTF-8"?>
<!DOCTYPE svg PUBLIC "-//W3C//DTD SVG 1.1//EN"
    "http://www.w3.org/Graphics/SVG/1.1/DTD/svg11.dtd"><svg font-size="1" viewBox="0.0 0.0 800.0 600.0" stroke="rgb(0,0,0)" xmlns="http://www.w3.org/2000/svg" width="800.0000" stroke-opacity="1" height="600.0000" version="1.1" xmlns:xlink="http://www.w3.org/1999/xlink"><defs></defs><g stroke-linejoin="bevel" fill-opacity="1.0" fill="rgb(255,255,255)" stroke="rgb(0,0,0)" stroke-linecap="butt" stroke-miterlimit="10.0" stroke-opacity="0.0" stroke-width="0.0"><path d="M 0.0000,0.0000 v 600.0000 h 800.0000 v -600.0000 Z"/></g><g stroke-linejoin="bevel" fill-opacity="1.0" fill="rgb(0,0,0)" stroke="rgb(0,0,0)" stroke-linecap="butt" stroke-miterlimit="10.0" stroke-opacity="0.0" stroke-width="0.0"><path d="M 377.0611,14.1016 ZM 378.2315,15.2105 c 0.1078,0.0308 0.2464,0.0616 0.2464 0.0616c 0.1386,0.0308 0.2618,0.0308 0.2618 0.0308c 0.5698,0.0000 0.8778,-0.2772 0.8778 -0.2772c 0.3080,-0.2772 0.4620,-0.7238 0.4620 -0.7238l 0.1078,-0.4004 l -2.9415,-7.4384 h 2.2793 l 1.0934,3.2803 c 0.1694,0.5236 0.3080,1.0626 0.3080 1.0626c 0.1386,0.5390 0.2926,1.1088 0.2926 1.1088h 0.0616 c 0.1232,-0.5390 0.2541,-1.0857 0.2541 -1.0857c 0.1309,-0.5467 0.2695,-1.0857 0.2695 -1.0857l 0.9240,-3.2803 h 2.1715 l -2.6489,7.7156 c -0.2772,0.7238 -0.5775,1.2705 -0.5775 1.2705c -0.3003,0.5467 -0.6930,0.9086 -0.6930 0.9086c -0.3927,0.3619 -0.8932,0.5467 -0.8932 0.5467c -0.5005,0.1848 -1.1781,0.1848 -1.1781 0.1848c -0.3542,-0.0000 -0.6006,-0.0385 -0.6006 -0.0385c -0.2464,-0.0385 -0.4774,-0.1155 -0.4774 -0.1155l 0.4004,-1.7248 h 0.0000 ZM 388.2880,14.1016 ZM 388.8116,6.4322 h 7.0842 v 1.6016 h -7.0842 v -1.6016 ZM 388.8116,6.4322 ZM 388.8116,9.9897 h 7.0842 v 1.6016 h -7.0842 v -1.6016 ZM 399.6227,14.1016 ZM 402.1792,10.1283 l -2.2023,-3.6653 h 2.4333 l 0.6776,1.2320 c 0.1540,0.3234 0.3157,0.6545 0.3157 0.6545c 0.1617,0.3311 0.3311,0.6545 0.3311 0.6545h 0.0616 c 0.1232,-0.3234 0.2618,-0.6545 0.2618 -0.6545c 0.1386,-0.3311 0.2618,-0.6545 0.2618 -0.6545l 0.5236,-1.2320 h 2.3409 l -2.2177,3.9271 l 2.3563,3.7115 h -2.4333 l -0.7392,-1.2628 c -0.1848,-0.3234 -0.3619,-0.6622 -0.3619 -0.6622c -0.1771,-0.3388 -0.3619,-0.6622 -0.3619 -0.6622h -0.0616 c -0.1386,0.3234 -0.2926,0.6545 -0.2926 0.6545c -0.1540,0.3311 -0.2926,0.6699 -0.2926 0.6699l -0.6006,1.2628 h -2.3409 ZM 407.5385,14.1016 ZM 410.6956,3.7834 h 1.8172 l 2.3871,6.0986 h -1.8634 l -0.7084,-1.9713 l -0.6930,-2.0791 h -0.0616 l -0.6930,2.0791 l -0.7084,1.9713 h -1.8634 ZM 415.6699,14.1016 ZM 416.2397,12.8080 c 0.9394,-0.8778 1.7171,-1.6401 1.7171 -1.6401c 0.7777,-0.7623 1.3398,-1.4322 1.3398 -1.4322c 0.5621,-0.6699 0.8778,-1.2474 0.8778 -1.2474c 0.3157,-0.5775 0.3157,-1.1011 0.3157 -1.1011c 0.0000,-0.7238 -0.3696,-1.1011 -0.3696 -1.1011c -0.3696,-0.3773 -1.0164,-0.3773 -1.0164 -0.3773c -0.5390,-0.0000 -0.9548,0.3003 -0.9548 0.3003c -0.4158,0.3003 -0.7854,0.7007 -0.7854 0.7007l -1.2320,-1.2166 c 0.7238,-0.7700 1.4784,-1.1627 1.4784 -1.1627c 0.7546,-0.3927 1.8018,-0.3927 1.8018 -0.3927c 0.7238,0.0000 1.3167,0.2233 1.3167 0.2233c 0.5929,0.2233 1.0241,0.6314 1.0241 0.6314c 0.4312,0.4081 0.6622,0.9779 0.6622 0.9779c 0.2310,0.5698 0.2310,1.2782 0.2310 1.2782c 0.0000,0.6160 -0.2618,1.2551 -0.2618 1.2551c -0.2618,0.6391 -0.7007,1.2782 -0.7007 1.2782c -0.4389,0.6391 -1.0010,1.2782 -1.0010 1.2782c -0.5621,0.6391 -1.1627,1.2551 -1.1627 1.2551c 0.3696,-0.0462 0.8239,-0.0847 0.8239 -0.0847c 0.4543,-0.0385 0.8085,-0.0385 0.8085 -0.0385h 1.9713 v 1.9097 h -6.8840 v -1.2936 Z"/></g><g stroke-linejoin="miter" fill-opacity="0.0" stroke-dashoffset="0.0" fill="rgb(0,0,0)" stroke="rgb(211,211,211)" stroke-linecap="butt" stroke-miterlimit="10.0" stroke-opacity="1.0" stroke-dasharray="4.999999999999998,4.999999999999998" stroke-width="0.9999999999999997"><path d="M 34.3697,35.0000 v 515.0000 "/></g><g stroke-linejoin="miter" fill-opacity="0.0" stroke-dashoffset="0.0" fill="rgb(0,0,0)" stroke="rgb(211,211,211)" stroke-linecap="butt" stroke-miterlimit="10.0" stroke-opacity="1.0" stroke-dasharray="4.999999999999998,4.999999999999998" stroke-width="0.9999999999999997"><path d="M 222.1337,35.0000 v 515.0000 "/></g><g stroke-linejoin="miter" fill-opacity="0.0" stroke-dashoffset="0.0" fill="rgb(0,0,0)" stroke="rgb(211,211,211)" stroke-linecap="butt" stroke-miterlimit="10.0" stroke-opacity="1.0" stroke-dasharray="4.999999999999998,4.999999999999998" stroke-width="0.9999999999999997"><path d="M 409.8976,35.0000 v 515.0000 "/></g><g stroke-linejoin="miter" fill-opacity="0.0" stroke-dashoffset="0.0" fill="rgb(0,0,0)" stroke="rgb(211,211,211)" stroke-linecap="butt" stroke-miterlimit="10.0" stroke-opacity="1.0" stroke-dasharray="4.999999999999998,4.999999999999998" stroke-width="0.9999999999999997"><path d="M 597.6615,35.0000 v 515.0000 "/></g><g stroke-linejoin="miter" fill-opacity="0.0" stroke-dashoffset="0.0" fill="rgb(0,0,0)" stroke="rgb(211,211,211)" stroke-linecap="butt" stroke-miterlimit="10.0" stroke-opacity="1.0" stroke-dasharray="4.999999999999998,4.999999999999998" stroke-width="0.9999999999999997"><path d="M 785.4254,35.0000 v 515.0000 "/></g><g stroke-linejoin="miter" fill-opacity="0.0" stroke-dashoffset="0.0" fill="rgb(0,0,0)" stroke="rgb(211,211,211)" stroke-linecap="butt" stroke-miterlimit="10.0" stroke-opacity="1.0" stroke-dasharray="4.999999999999998,4.999999999999998" stroke-width="0.9999999999999997"><path d="M 34.3697,550.0000 h 751.0557 "/></g><g stroke-linejoin="miter" fill-opacity="0.0" stroke-dashoffset="0.0" fill="rgb(0,0,0)" stroke="rgb(211,211,211)" stroke-linecap="butt" stroke-miterlimit="10.0" stroke-opacity="1.0" stroke-dasharray="4.999999999999998,4.999999999999998" stroke-width="0.9999999999999997"><path d="M 34.3697,447.0000 h 751.0557 "/></g><g stroke-linejoin="miter" fill-opacity="0.0" stroke-dashoffset="0.0" fill="rgb(0,0,0)" stroke="rgb(211,211,211)" stroke-linecap="butt" stroke-miterlimit="10.0" stroke-opacity="1.0" stroke-dasharray="4.999999999999998,4.999999999999998" stroke-width="0.9999999999999997"><path d="M 34.3697,344.0000 h 751.0557 "/></g><g stroke-linejoin="miter" fill-opacity="0.0" stroke-dashoffset="0.0" fill="rgb(0,0,0)" stroke="rgb(211,211,211)" stroke-linecap="butt" stroke-miterlimit="10.0" stroke-opacity="1.0" stroke-dasharray="4.999999999999998,4.999999999999998" stroke-width="0.9999999999999997"><path d="M 34.3697,241.0000 h 751.0557 "/></g><g stroke-linejoin="miter" fill-opacity="0.0" stroke-dashoffset="0.0" fill="rgb(0,0,0)" stroke="rgb(211,211,211)" stroke-linecap="butt" stroke-miterlimit="10.0" stroke-opacity="1.0" stroke-dasharray="4.999999999999998,4.999999999999998" stroke-width="0.9999999999999997"><path d="M 34.3697,138.0000 h 751.0557 "/></g><g stroke-linejoin="miter" fill-opacity="0.0" stroke-dashoffset="0.0" fill="rgb(0,0,0)" stroke="rgb(211,211,211)" stroke-linecap="butt" stroke-miterlimit="10.0" stroke-opacity="1.0" stroke-dasharray="4.999999999999998,4.999999999999998" stroke-width="0.9999999999999997"><path d="M 34.3697,35.0000 h 751.0557 "/></g><g stroke-linejoin="round" fill-opacity="0.0" fill="rgb(0,0,0)" stroke="rgb(0,0,255)" stroke-linecap="round" stroke-miterlimit="10.0" stroke-opacity="1.0" stroke-width="0.9999999999999997"><defs><clipPath id="myClip1"><path d="M 34.3697,35.0000 v 515.0000 h 751.0557 v -515.0000 Z"/></clipPath></defs><g clip-path="url(#myClip1)"><path d="M 34.3697,35.0000 l 3.7553,10.2485 l 3.7553,10.1455 l 3.7553,10.0425 l 3.7553,9.9395 l 3.7553,9.8365 l 3.7553,9.7335 l 3.7553,9.6305 l 3.7553,9.5275 l 3.7553,9.4245 l 3.7553,9.3215 l 3.7553,9.2185 l 3.7553,9.1155 l 3.7553,9.0125 l 3.7553,8.9095 l 3.7553,8.8065 l 3.7553,8.7035 l 3.7553,8.6005 l 3.7553,8.4975 l 3.7553,8.3945 l 3.7553,8.2915 l 3.7553,8.1885 l 3.7553,8.0855 l 3.7553,7.9825 l 3.7553,7.8795 l 3.7553,7.7765 l 3.7553,7.6735 l 3.7553,7.5705 l 3.7553,7.4675 l 3.7553,7.3645 l 3.7553,7.2615 l 3.7553,7.1585 l 3.7553,7.0555 l 3.7553,6.9525 l 3.7553,6.8495 l 3.7553,6.7465 l 3.7553,6.6435 l 3.7553,6.5405 l 3.7553,6.4375 l 3.7553,6.3345 l 3.7553,6.2315 l 3.7553,6.1285 l 3.7553,6.0255 l 3.7553,5.9225 l 3.7553,5.8195 l 3.7553,5.7165 l 3.7553,5.6135 l 3.7553,5.5105 l 3.7553,5.4075 l 3.7553,5.3045 l 3.7553,5.2015 l 3.7553,5.0985 l 3.7553,4.9955 l 3.7553,4.8925 l 3.7553,4.7895 l 3.7553,4.6865 l 3.7553,4.5835 l 3.7553,4.4805 l 3.7553,4.3775 l 3.7553,4.2745 l 3.7553,4.1715 l 3.7553,4.0685 l 3.7553,3.9655 l 3.7553,3.8625 l 3.7553,3.7595 l 3.7553,3.6565 l 3.7553,3.5535 l 3.7553,3.4505 l 3.7553,3.3475 l 3.7553,3.2445 l 3.7553,3.1415 l 3.7553,3.0385 l 3.7553,2.9355 l 3.7553,2.8325 l 3.7553,2.7295 l 3.7553,2.6265 l 3.7553,2.5235 l 3.7553,2.4205 l 3.7553,2.3175 l 3.7553,2.2145 l 3.7553,2.1115 l 3.7553,2.0085 l 3.7553,1.9055 l 3.7553,1.8025 l 3.7553,1.6995 l 3.7553,1.5965 l 3.7553,1.4935 l 3.7553,1.3905 l 3.7553,1.2875 l 3.7553,1.1845 l 3.7553,1.0815 l 3.7553,0.9785 l 3.7553,0.8755 l 3.7553,0.7725 l 3.7553,0.6695 l 3.7553,0.5665 l 3.7553,0.4635 l 3.7553,0.3605 l 3.7553,0.2575 l 3.7553,0.1545 l 3.7553,0.0515 l 3.7553,-0.0515 l 3.7553,-0.1545 l 3.7553,-0.2575 l 3.7553,-0.3605 l 3.7553,-0.4635 l 3.7553,-0.5665 l 3.7553,-0.6695 l 3.7553,-0.7725 l 3.7553,-0.8755 l 3.7553,-0.9785 l 3.7553,-1.0815 l 3.7553,-1.1845 l 3.7553,-1.2875 l 3.7553,-1.3905 l 3.7553,-1.4935 l 3.7553,-1.5965 l 3.7553,-1.6995 l 3.7553,-1.8025 l 3.7553,-1.9055 l 3.7553,-2.0085 l 3.7553,-2.1115 l 3.7553,-2.2145 l 3.7553,-2.3175 l 3.7553,-2.4205 l 3.7553,-2.5235 l 3.7553,-2.6265 l 3.7553,-2.7295 l 3.7553,-2.8325 l 3.7553,-2.9355 l 3.7553,-3.0385 l 3.7553,-3.1415 l 3.7553,-3.2445 l 3.7553,-3.3475 l 3.7553,-3.4505 l 3.7553,-3.5535 l 3.7553,-3.6565 l 3.7553,-3.7595 l 3.7553,-3.8625 l 3.7553,-3.9655 l 3.7553,-4.0685 l 3.7553,-4.1715 l 3.7553,-4.2745 l 3.7553,-4.3775 l 3.7553,-4.4805 l 3.7553,-4.5835 l 3.7553,-4.6865 l 3.7553,-4.7895 l 3.7553,-4.8925 l 3.7553,-4.9955 l 3.7553,-5.0985 l 3.7553,-5.2015 l 3.7553,-5.3045 l 3.7553,-5.4075 l 3.7553,-5.5105 l 3.7553,-5.6135 l 3.7553,-5.7165 l 3.7553,-5.8195 l 3.7553,-5.9225 l 3.7553,-6.0255 l 3.7553,-6.1285 l 3.7553,-6.2315 l 3.7553,-6.3345 l 3.7553,-6.4375 l 3.7553,-6.5405 l 3.7553,-6.6435 l 3.7553,-6.7465 l 3.7553,-6.8495 l 3.7553,-6.9525 l 3.7553,-7.0555 l 3.7553,-7.1585 l 3.7553,-7.2615 l 3.7553,-7.3645 l 3.7553,-7.4675 l 3.7553,-7.5705 l 3.7553,-7.6735 l 3.7553,-7.7765 l 3.7553,-7.8795 l 3.7553,-7.9825 l 3.7553,-8.0855 l 3.7553,-8.1885 l 3.7553,-8.2915 l 3.7553,-8.3945 l 3.7553,-8.4975 l 3.7553,-8.6005 l 3.7553,-8.7035 l 3.7553,-8.8065 l 3.7553,-8.9095 l 3.7553,-9.0125 l 3.7553,-9.1155 l 3.7553,-9.2185 l 3.7553,-9.3215 l 3.7553,-9.4245 l 3.7553,-9.5275 l 3.7553,-9.6305 l 3.7553,-9.7335 l 3.7553,-9.8365 l 3.7553,-9.9395 l 3.7553,-10.0425 l 3.7553,-10.1455 l 3.7553,-10.2485 "/></g></g><g stroke-linejoin="miter" fill-opacity="0.0" fill="rgb(0,0,0)" stroke="rgb(0,0,0)" stroke-linecap="square" stroke-miterlimit="10.0" stroke-opacity="1.0" stroke-width="0.9999999999999997"><path d="M 34.3697,550.0000 v -515.0000 "/></g><g stroke-linejoin="miter" fill-opacity="0.0" fill="rgb(0,0,0)" stroke="rgb(0,0,0)" stroke-linecap="butt" stroke-miterlimit="10.0" stroke-opacity="1.0" stroke-width="0.9999999999999997"><path d="M 34.3697,550.0000 h 2.0000 "/></g><g stroke-linejoin="miter" fill-opacity="0.0" fill="rgb(0,0,0)" stroke="rgb(0,0,0)" stroke-linecap="butt" stroke-miterlimit="10.0" stroke-opacity="1.0" stroke-width="0.9999999999999997"><path d="M 34.3697,539.7000 h 2.0000 "/></g><g stroke-linejoin="miter" fill-opacity="0.0" fill="rgb(0,0,0)" stroke="rgb(0,0,0)" stroke-linecap="butt" stroke-miterlimit="10.0" stroke-opacity="1.0" stroke-width="0.9999999999999997"><path d="M 34.3697,529.4000 h 2.0000 "/></g><g stroke-linejoin="miter" fill-opacity="0.0" fill="rgb(0,0,0)" stroke="rgb(0,0,0)" stroke-linecap="butt" stroke-miterlimit="10.0" stroke-opacity="1.0" stroke-width="0.9999999999999997"><path d="M 34.3697,519.1000 h 2.0000 "/></g><g stroke-linejoin="miter" fill-opacity="0.0" fill="rgb(0,0,0)" stroke="rgb(0,0,0)" stroke-linecap="butt" stroke-miterlimit="10.0" stroke-opacity="1.0" stroke-width="0.9999999999999997"><path d="M 34.3697,508.8000 h 2.0000 "/></g><g stroke-linejoin="miter" fill-opacity="0.0" fill="rgb(0,0,0)" stroke="rgb(0,0,0)" stroke-linecap="butt" stroke-miterlimit="10.0" stroke-opacity="1.0" stroke-width="0.9999999999999997"><path d="M 34.3697,498.5000 h 2.0000 "/></g><g stroke-linejoin="miter" fill-opacity="0.0" fill="rgb(0,0,0)" stroke="rgb(0,0,0)" stroke-linecap="butt" stroke-miterlimit="10.0" stroke-opacity="1.0" stroke-width="0.9999999999999997"><path d="M 34.3697,488.2000 h 2.0000 "/></g><g stroke-linejoin="miter" fill-opacity="0.0" fill="rgb(0,0,0)" stroke="rgb(0,0,0)" stroke-linecap="butt" stroke-miterlimit="10.0" stroke-opacity="1.0" stroke-width="0.9999999999999997"><path d="M 34.3697,477.9000 h 2.0000 "/></g><g stroke-linejoin="miter" fill-opacity="0.0" fill="rgb(0,0,0)" stroke="rgb(0,0,0)" stroke-linecap="butt" stroke-miterlimit="10.0" stroke-opacity="1.0" stroke-width="0.9999999999999997"><path d="M 34.3697,467.6000 h 2.0000 "/></g><g stroke-linejoin="miter" fill-opacity="0.0" fill="rgb(0,0,0)" stroke="rgb(0,0,0)" stroke-linecap="butt" stroke-miterlimit="10.0" stroke-opacity="1.0" stroke-width="0.9999999999999997"><path d="M 34.3697,457.3000 h 2.0000 "/></g><g stroke-linejoin="miter" fill-opacity="0.0" fill="rgb(0,0,0)" stroke="rgb(0,0,0)" stroke-linecap="butt" stroke-miterlimit="10.0" stroke-opacity="1.0" stroke-width="0.9999999999999997"><path d="M 34.3697,447.0000 h 2.0000 "/></g><g stroke-linejoin="miter" fill-opacity="0.0" fill="rgb(0,0,0)" stroke="rgb(0,0,0)" stroke-linecap="butt" stroke-miterlimit="10.0" stroke-opacity="1.0" stroke-width="0.9999999999999997"><path d="M 34.3697,436.7000 h 2.0000 "/></g><g stroke-linejoin="miter" fill-opacity="0.0" fill="rgb(0,0,0)" stroke="rgb(0,0,0)" stroke-linecap="butt" stroke-miterlimit="10.0" stroke-opacity="1.0" stroke-width="0.9999999999999997"><path d="M 34.3697,426.4000 h 2.0000 "/></g><g stroke-linejoin="miter" fill-opacity="0.0" fill="rgb(0,0,0)" stroke="rgb(0,0,0)" stroke-linecap="butt" stroke-miterlimit="10.0" stroke-opacity="1.0" stroke-width="0.9999999999999997"><path d="M 34.3697,416.1000 h 2.0000 "/></g><g stroke-linejoin="miter" fill-opacity="0.0" fill="rgb(0,0,0)" stroke="rgb(0,0,0)" stroke-linecap="butt" stroke-miterlimit="10.0" stroke-opacity="1.0" stroke-width="0.9999999999999997"><path d="M 34.3697,405.8000 h 2.0000 "/></g><g stroke-linejoin="miter" fill-opacity="0.0" fill="rgb(0,0,0)" stroke="rgb(0,0,0)" stroke-linecap="butt" stroke-miterlimit="10.0" stroke-opacity="1.0" stroke-width="0.9999999999999997"><path d="M 34.3697,395.5000 h 2.0000 "/></g><g stroke-linejoin="miter" fill-opacity="0.0" fill="rgb(0,0,0)" stroke="rgb(0,0,0)" stroke-linecap="butt" stroke-miterlimit="10.0" stroke-opacity="1.0" stroke-width="0.9999999999999997"><path d="M 34.3697,385.2000 h 2.0000 "/></g><g stroke-linejoin="miter" fill-opacity="0.0" fill="rgb(0,0,0)" stroke="rgb(0,0,0)" stroke-linecap="butt" stroke-miterlimit="10.0" stroke-opacity="1.0" stroke-width="0.9999999999999997"><path d="M 34.3697,374.9000 h 2.0000 "/></g><g stroke-linejoin="miter" fill-opacity="0.0" fill="rgb(0,0,0)" stroke="rgb(0,0,0)" stroke-linecap="butt" stroke-miterlimit="10.0" stroke-opacity="1.0" stroke-width="0.9999999999999997"><path d="M 34.3697,364.6000 h 2.0000 "/></g><g stroke-linejoin="miter" fill-opacity="0.0" fill="rgb(0,0,0)" stroke="rgb(0,0,0)" stroke-linecap="butt" stroke-miterlimit="10.0" stroke-opacity="1.0" stroke-width="0.9999999999999997"><path d="M 34.3697,354.3000 h 2.0000 "/></g><g stroke-linejoin="miter" fill-opacity="0.0" fill="rgb(0,0,0)" stroke="rgb(0,0,0)" stroke-linecap="butt" stroke-miterlimit="10.0" stroke-opacity="1.0" stroke-width="0.9999999999999997"><path d="M 34.3697,344.0000 h 2.0000 "/></g><g stroke-linejoin="miter" fill-opacity="0.0" fill="rgb(0,0,0)" stroke="rgb(0,0,0)" stroke-linecap="butt" stroke-miterlimit="10.0" stroke-opacity="1.0" stroke-width="0.9999999999999997"><path d="M 34.3697,333.7000 h 2.0000 "/></g><g stroke-linejoin="miter" fill-opacity="0.0" fill="rgb(0,0,0)" stroke="rgb(0,0,0)" stroke-linecap="butt" stroke-miterlimit="10.0" stroke-opacity="1.0" stroke-width="0.9999999999999997"><path d="M 34.3697,323.4000 h 2.0000 "/></g><g stroke-linejoin="miter" fill-opacity="0.0" fill="rgb(0,0,0)" stroke="rgb(0,0,0)" stroke-linecap="butt" stroke-miterlimit="10.0" stroke-opacity="1.0" stroke-width="0.9999999999999997"><path d="M 34.3697,313.1000 h 2.0000 "/></g><g stroke-linejoin="miter" fill-opacity="0.0" fill="rgb(0,0,0)" stroke="rgb(0,0,0)" stroke-linecap="butt" stroke-miterlimit="10.0" stroke-opacity="1.0" stroke-width="0.9999999999999997"><path d="M 34.3697,302.8000 h 2.0000 "/></g><g stroke-linejoin="miter" fill-opacity="0.0" fill="rgb(0,0,0)" stroke="rgb(0,0,0)" stroke-linecap="butt" stroke-miterlimit="10.0" stroke-opacity="1.0" stroke-width="0.9999999999999997"><path d="M 34.3697,292.5000 h 2.0000 "/></g><g stroke-linejoin="miter" fill-opacity="0.0" fill="rgb(0,0,0)" stroke="rgb(0,0,0)" stroke-linecap="butt" stroke-miterlimit="10.0" stroke-opacity="1.0" stroke-width="0.9999999999999997"><path d="M 34.3697,282.2000 h 2.0000 "/></g><g stroke-linejoin="miter" fill-opacity="0.0" fill="rgb(0,0,0)" stroke="rgb(0,0,0)" stroke-linecap="butt" stroke-miterlimit="10.0" stroke-opacity="1.0" stroke-width="0.9999999999999997"><path d="M 34.3697,271.9000 h 2.0000 "/></g><g stroke-linejoin="miter" fill-opacity="0.0" fill="rgb(0,0,0)" stroke="rgb(0,0,0)" stroke-linecap="butt" stroke-miterlimit="10.0" stroke-opacity="1.0" stroke-width="0.9999999999999997"><path d="M 34.3697,261.6000 h 2.0000 "/></g><g stroke-linejoin="miter" fill-opacity="0.0" fill="rgb(0,0,0)" stroke="rgb(0,0,0)" stroke-linecap="butt" stroke-miterlimit="10.0" stroke-opacity="1.0" stroke-width="0.9999999999999997"><path d="M 34.3697,251.3000 h 2.0000 "/></g><g stroke-linejoin="miter" fill-opacity="0.0" fill="rgb(0,0,0)" stroke="rgb(0,0,0)" stroke-linecap="butt" stroke-miterlimit="10.0" stroke-opacity="1.0" stroke-width="0.9999999999999997"><path d="M 34.3697,241.0000 h 2.0000 "/></g><g stroke-linejoin="miter" fill-opacity="0.0" fill="rgb(0,0,0)" stroke="rgb(0,0,0)" stroke-linecap="butt" stroke-miterlimit="10.0" stroke-opacity="1.0" stroke-width="0.9999999999999997"><path d="M 34.3697,230.7000 h 2.0000 "/></g><g stroke-linejoin="miter" fill-opacity="0.0" fill="rgb(0,0,0)" stroke="rgb(0,0,0)" stroke-linecap="butt" stroke-miterlimit="10.0" stroke-opacity="1.0" stroke-width="0.9999999999999997"><path d="M 34.3697,220.4000 h 2.0000 "/></g><g stroke-linejoin="miter" fill-opacity="0.0" fill="rgb(0,0,0)" stroke="rgb(0,0,0)" stroke-linecap="butt" stroke-miterlimit="10.0" stroke-opacity="1.0" stroke-width="0.9999999999999997"><path d="M 34.3697,210.1000 h 2.0000 "/></g><g stroke-linejoin="miter" fill-opacity="0.0" fill="rgb(0,0,0)" stroke="rgb(0,0,0)" stroke-linecap="butt" stroke-miterlimit="10.0" stroke-opacity="1.0" stroke-width="0.9999999999999997"><path d="M 34.3697,199.8000 h 2.0000 "/></g><g stroke-linejoin="miter" fill-opacity="0.0" fill="rgb(0,0,0)" stroke="rgb(0,0,0)" stroke-linecap="butt" stroke-miterlimit="10.0" stroke-opacity="1.0" stroke-width="0.9999999999999997"><path d="M 34.3697,189.5000 h 2.0000 "/></g><g stroke-linejoin="miter" fill-opacity="0.0" fill="rgb(0,0,0)" stroke="rgb(0,0,0)" stroke-linecap="butt" stroke-miterlimit="10.0" stroke-opacity="1.0" stroke-width="0.9999999999999997"><path d="M 34.3697,179.2000 h 2.0000 "/></g><g stroke-linejoin="miter" fill-opacity="0.0" fill="rgb(0,0,0)" stroke="rgb(0,0,0)" stroke-linecap="butt" stroke-miterlimit="10.0" stroke-opacity="1.0" stroke-width="0.9999999999999997"><path d="M 34.3697,168.9000 h 2.0000 "/></g><g stroke-linejoin="miter" fill-opacity="0.0" fill="rgb(0,0,0)" stroke="rgb(0,0,0)" stroke-linecap="butt" stroke-miterlimit="10.0" stroke-opacity="1.0" stroke-width="0.9999999999999997"><path d="M 34.3697,158.6000 h 2.0000 "/></g><g stroke-linejoin="miter" fill-opacity="0.0" fill="rgb(0,0,0)" stroke="rgb(0,0,0)" stroke-linecap="butt" stroke-miterlimit="10.0" stroke-opacity="1.0" stroke-width="0.9999999999999997"><path d="M 34.3697,148.3000 h 2.0000 "/></g><g stroke-linejoin="miter" fill-opacity="0.0" fill="rgb(0,0,0)" stroke="rgb(0,0,0)" stroke-linecap="butt" stroke-miterlimit="10.0" stroke-opacity="1.0" stroke-width="0.9999999999999997"><path d="M 34.3697,138.0000 h 2.0000 "/></g><g stroke-linejoin="miter" fill-opacity="0.0" fill="rgb(0,0,0)" stroke="rgb(0,0,0)" stroke-linecap="butt" stroke-miterlimit="10.0" stroke-opacity="1.0" stroke-width="0.9999999999999997"><path d="M 34.3697,127.7000 h 2.0000 "/></g><g stroke-linejoin="miter" fill-opacity="0.0" fill="rgb(0,0,0)" stroke="rgb(0,0,0)" stroke-linecap="butt" stroke-miterlimit="10.0" stroke-opacity="1.0" stroke-width="0.9999999999999997"><path d="M 34.3697,117.4000 h 2.0000 "/></g><g stroke-linejoin="miter" fill-opacity="0.0" fill="rgb(0,0,0)" stroke="rgb(0,0,0)" stroke-linecap="butt" stroke-miterlimit="10.0" stroke-opacity="1.0" stroke-width="0.9999999999999997"><path d="M 34.3697,107.1000 h 2.0000 "/></g><g stroke-linejoin="miter" fill-opacity="0.0" fill="rgb(0,0,0)" stroke="rgb(0,0,0)" stroke-linecap="butt" stroke-miterlimit="10.0" stroke-opacity="1.0" stroke-width="0.9999999999999997"><path d="M 34.3697,96.8000 h 2.0000 "/></g><g stroke-linejoin="miter" fill-opacity="0.0" fill="rgb(0,0,0)" stroke="rgb(0,0,0)" stroke-linecap="butt" stroke-miterlimit="10.0" stroke-opacity="1.0" stroke-width="0.9999999999999997"><path d="M 34.3697,86.5000 h 2.0000 "/></g><g stroke-linejoin="miter" fill-opacity="0.0" fill="rgb(0,0,0)" stroke="rgb(0,0,0)" stroke-linecap="butt" stroke-miterlimit="10.0" stroke-opacity="1.0" stroke-width="0.9999999999999997"><path d="M 34.3697,76.2000 h 2.0000 "/></g><g stroke-linejoin="miter" fill-opacity="0.0" fill="rgb(0,0,0)" stroke="rgb(0,0,0)" stroke-linecap="butt" stroke-miterlimit="10.0" stroke-opacity="1.0" stroke-width="0.9999999999999997"><path d="M 34.3697,65.9000 h 2.0000 "/></g><g stroke-linejoin="miter" fill-opacity="0.0" fill="rgb(0,0,0)" stroke="rgb(0,0,0)" stroke-linecap="butt" stroke-miterlimit="10.0" stroke-opacity="1.0" stroke-width="0.9999999999999997"><path d="M 34.3697,55.6000 h 2.0000 "/></g><g stroke-linejoin="miter" fill-opacity="0.0" fill="rgb(0,0,0)" stroke="rgb(0,0,0)" stroke-linecap="butt" stroke-miterlimit="10.0" stroke-opacity="1.0" stroke-width="0.9999999999999997"><path d="M 34.3697,45.3000 h 2.0000 "/></g><g stroke-linejoin="miter" fill-opacity="0.0" fill="rgb(0,0,0)" stroke="rgb(0,0,0)" stroke-linecap="butt" stroke-miterlimit="10.0" stroke-opacity="1.0" stroke-width="0.9999999999999997"><path d="M 34.3697,35.0000 h 2.0000 "/></g><g stroke-linejoin="miter" fill-opacity="0.0" fill="rgb(0,0,0)" stroke="rgb(0,0,0)" stroke-linecap="butt" stroke-miterlimit="10.0" stroke-opacity="1.0" stroke-width="0.9999999999999997"><path d="M 34.3697,550.0000 h 5.0000 "/></g><g stroke-linejoin="miter" fill-opacity="0.0" fill="rgb(0,0,0)" stroke="rgb(0,0,0)" stroke-linecap="butt" stroke-miterlimit="10.0" stroke-opacity="1.0" stroke-width="0.9999999999999997"><path d="M 34.3697,447.0000 h 5.0000 "/></g><g stroke-linejoin="miter" fill-opacity="0.0" fill="rgb(0,0,0)" stroke="rgb(0,0,0)" stroke-linecap="butt" stroke-miterlimit="10.0" stroke-opacity="1.0" stroke-width="0.9999999999999997"><path d="M 34.3697,344.0000 h 5.0000 "/></g><g stroke-linejoin="miter" fill-opacity="0.0" fill="rgb(0,0,0)" stroke="rgb(0,0,0)" stroke-linecap="butt" stroke-miterlimit="10.0" stroke-opacity="1.0" stroke-width="0.9999999999999997"><path d="M 34.3697,241.0000 h 5.0000 "/></g><g stroke-linejoin="miter" fill-opacity="0.0" fill="rgb(0,0,0)" stroke="rgb(0,0,0)" stroke-linecap="butt" stroke-miterlimit="10.0" stroke-opacity="1.0" stroke-width="0.9999999999999997"><path d="M 34.3697,138.0000 h 5.0000 "/></g><g stroke-linejoin="miter" fill-opacity="0.0" fill="rgb(0,0,0)" stroke="rgb(0,0,0)" stroke-linecap="butt" stroke-miterlimit="10.0" stroke-opacity="1.0" stroke-width="0.9999999999999997"><path d="M 34.3697,35.0000 h 5.0000 "/></g><g stroke-linejoin="bevel" fill-opacity="1.0" fill="rgb(0,0,0)" stroke="rgb(0,0,0)" stroke-linecap="butt" stroke-miterlimit="10.0" stroke-opacity="0.0" stroke-width="0.0"><path d="M 20.0735,553.4454 ZM 22.6891,553.5714 c -1.0189,-0.0000 -1.5861,-0.9034 -1.5861 -0.9034c -0.5672,-0.9034 -0.5672,-2.5945 -0.5672 -2.5945c 0.0000,-1.6912 0.5672,-2.5735 0.5672 -2.5735c 0.5672,-0.8824 1.5861,-0.8824 1.5861 -0.8824c 1.0084,0.0000 1.5756,0.8824 1.5756 0.8824c 0.5672,0.8824 0.5672,2.5735 0.5672 2.5735c 0.0000,1.6912 -0.5672,2.5945 -0.5672 2.5945c -0.5672,0.9034 -1.5756,0.9034 -1.5756 0.9034ZM 22.6891,553.5714 ZM 22.6891,552.8782 c 0.2941,0.0000 0.5305,-0.1628 0.5305 -0.1628c 0.2363,-0.1628 0.4097,-0.5042 0.4097 -0.5042c 0.1733,-0.3414 0.2679,-0.8718 0.2679 -0.8718c 0.0945,-0.5305 0.0945,-1.2658 0.0945 -1.2658c 0.0000,-0.7353 -0.0945,-1.2605 -0.0945 -1.2605c -0.0945,-0.5252 -0.2679,-0.8561 -0.2679 -0.8561c -0.1733,-0.3309 -0.4097,-0.4884 -0.4097 -0.4884c -0.2363,-0.1576 -0.5305,-0.1576 -0.5305 -0.1576c -0.2941,-0.0000 -0.5357,0.1576 -0.5357 0.1576c -0.2416,0.1576 -0.4149,0.4884 -0.4149 0.4884c -0.1733,0.3309 -0.2679,0.8561 -0.2679 0.8561c -0.0945,0.5252 -0.0945,1.2605 -0.0945 1.2605c 0.0000,1.4706 0.3624,2.1376 0.3624 2.1376c 0.3624,0.6670 0.9506,0.6670 0.9506 0.6670Z"/></g><g stroke-linejoin="bevel" fill-opacity="1.0" fill="rgb(0,0,0)" stroke="rgb(0,0,0)" stroke-linecap="butt" stroke-miterlimit="10.0" stroke-opacity="0.0" stroke-width="0.0"><path d="M 14.7689,450.4454 ZM 15.1891,449.9307 c 0.7563,-0.7563 1.3445,-1.3655 1.3445 -1.3655c 0.5882,-0.6092 0.9874,-1.1292 0.9874 -1.1292c 0.3992,-0.5200 0.6092,-0.9559 0.6092 -0.9559c 0.2101,-0.4359 0.2101,-0.8456 0.2101 -0.8456c 0.0000,-0.5777 -0.3151,-0.9454 -0.3151 -0.9454c -0.3151,-0.3676 -0.9559,-0.3676 -0.9559 -0.3676c -0.4202,-0.0000 -0.7773,0.2363 -0.7773 0.2363c -0.3571,0.2363 -0.6513,0.5725 -0.6513 0.5725l -0.4937,-0.4937 c 0.4202,-0.4622 0.8929,-0.7405 0.8929 -0.7405c 0.4727,-0.2784 1.1345,-0.2784 1.1345 -0.2784c 0.9349,0.0000 1.4706,0.5410 1.4706 0.5410c 0.5357,0.5410 0.5357,1.4338 0.5357 1.4338c 0.0000,0.4727 -0.2048,0.9506 -0.2048 0.9506c -0.2048,0.4779 -0.5672,0.9874 -0.5672 0.9874c -0.3624,0.5095 -0.8613,1.0609 -0.8613 1.0609c -0.4989,0.5515 -1.0977,1.1712 -1.0977 1.1712c 0.2731,-0.0210 0.5672,-0.0420 0.5672 -0.0420c 0.2941,-0.0210 0.5567,-0.0210 0.5567 -0.0210h 1.9433 v 0.7458 h -4.3277 v -0.5147 ZM 19.9895,450.4454 ZM 22.6050,450.5714 c -1.0189,-0.0000 -1.5861,-0.9034 -1.5861 -0.9034c -0.5672,-0.9034 -0.5672,-2.5945 -0.5672 -2.5945c 0.0000,-1.6912 0.5672,-2.5735 0.5672 -2.5735c 0.5672,-0.8824 1.5861,-0.8824 1.5861 -0.8824c 1.0084,0.0000 1.5756,0.8824 1.5756 0.8824c 0.5672,0.8824 0.5672,2.5735 0.5672 2.5735c 0.0000,1.6912 -0.5672,2.5945 -0.5672 2.5945c -0.5672,0.9034 -1.5756,0.9034 -1.5756 0.9034ZM 22.6050,450.5714 ZM 22.6050,449.8782 c 0.2941,0.0000 0.5305,-0.1628 0.5305 -0.1628c 0.2363,-0.1628 0.4097,-0.5042 0.4097 -0.5042c 0.1733,-0.3414 0.2679,-0.8718 0.2679 -0.8718c 0.0945,-0.5305 0.0945,-1.2658 0.0945 -1.2658c 0.0000,-0.7353 -0.0945,-1.2605 -0.0945 -1.2605c -0.0945,-0.5252 -0.2679,-0.8561 -0.2679 -0.8561c -0.1733,-0.3309 -0.4097,-0.4884 -0.4097 -0.4884c -0.2363,-0.1576 -0.5305,-0.1576 -0.5305 -0.1576c -0.2941,-0.0000 -0.5357,0.1576 -0.5357 0.1576c -0.2416,0.1576 -0.4149,0.4884 -0.4149 0.4884c -0.1733,0.3309 -0.2679,0.8561 -0.2679 0.8561c -0.0945,0.5252 -0.0945,1.2605 -0.0945 1.2605c 0.0000,1.4706 0.3624,2.1376 0.3624 2.1376c 0.3624,0.6670 0.9506,0.6670 0.9506 0.6670Z"/></g><g stroke-linejoin="bevel" fill-opacity="1.0" fill="rgb(0,0,0)" stroke="rgb(0,0,0)" stroke-linecap="butt" stroke-miterlimit="10.0" stroke-opacity="0.0" stroke-width="0.0"><path d="M 14.5693,347.4454 ZM 17.7626,344.9034 v -1.9433 c 0.0000,-0.2731 0.0158,-0.6460 0.0158 -0.6460c 0.0158,-0.3729 0.0368,-0.6460 0.0368 -0.6460h -0.0420 c -0.1261,0.2416 -0.2626,0.4727 -0.2626 0.4727c -0.1366,0.2311 -0.2836,0.4727 -0.2836 0.4727l -1.5651,2.2899 h 2.1008 ZM 17.7626,344.9034 ZM 19.4958,345.5966 h -0.9139 v 1.8487 h -0.8193 v -1.8487 h -3.0147 v -0.5672 l 2.8676,-4.2857 h 0.9664 v 4.1597 h 0.9139 v 0.6933 ZM 19.7899,347.4454 ZM 22.4055,347.5714 c -1.0189,-0.0000 -1.5861,-0.9034 -1.5861 -0.9034c -0.5672,-0.9034 -0.5672,-2.5945 -0.5672 -2.5945c 0.0000,-1.6912 0.5672,-2.5735 0.5672 -2.5735c 0.5672,-0.8824 1.5861,-0.8824 1.5861 -0.8824c 1.0084,0.0000 1.5756,0.8824 1.5756 0.8824c 0.5672,0.8824 0.5672,2.5735 0.5672 2.5735c 0.0000,1.6912 -0.5672,2.5945 -0.5672 2.5945c -0.5672,0.9034 -1.5756,0.9034 -1.5756 0.9034ZM 22.4055,347.5714 ZM 22.4055,346.8782 c 0.2941,0.0000 0.5305,-0.1628 0.5305 -0.1628c 0.2363,-0.1628 0.4097,-0.5042 0.4097 -0.5042c 0.1733,-0.3414 0.2679,-0.8718 0.2679 -0.8718c 0.0945,-0.5305 0.0945,-1.2658 0.0945 -1.2658c 0.0000,-0.7353 -0.0945,-1.2605 -0.0945 -1.2605c -0.0945,-0.5252 -0.2679,-0.8561 -0.2679 -0.8561c -0.1733,-0.3309 -0.4097,-0.4884 -0.4097 -0.4884c -0.2363,-0.1576 -0.5305,-0.1576 -0.5305 -0.1576c -0.2941,-0.0000 -0.5357,0.1576 -0.5357 0.1576c -0.2416,0.1576 -0.4149,0.4884 -0.4149 0.4884c -0.1733,0.3309 -0.2679,0.8561 -0.2679 0.8561c -0.0945,0.5252 -0.0945,1.2605 -0.0945 1.2605c 0.0000,1.4706 0.3624,2.1376 0.3624 2.1376c 0.3624,0.6670 0.9506,0.6670 0.9506 0.6670Z"/></g><g stroke-linejoin="bevel" fill-opacity="1.0" fill="rgb(0,0,0)" stroke="rgb(0,0,0)" stroke-linecap="butt" stroke-miterlimit="10.0" stroke-opacity="0.0" stroke-width="0.0"><path d="M 14.8950,244.4454 ZM 17.7101,243.8887 c 0.2521,0.0000 0.4622,-0.1050 0.4622 -0.1050c 0.2101,-0.1050 0.3676,-0.2994 0.3676 -0.2994c 0.1576,-0.1943 0.2468,-0.4622 0.2468 -0.4622c 0.0893,-0.2679 0.0893,-0.6040 0.0893 -0.6040c 0.0000,-0.6618 -0.3046,-1.0399 -0.3046 -1.0399c -0.3046,-0.3782 -0.9349,-0.3782 -0.9349 -0.3782c -0.3151,-0.0000 -0.6880,0.2048 -0.6880 0.2048c -0.3729,0.2048 -0.7090,0.6775 -0.7090 0.6775c 0.0840,0.9874 0.4569,1.4968 0.4569 1.4968c 0.3729,0.5095 1.0137,0.5095 1.0137 0.5095ZM 17.7101,243.8887 ZM 19.0861,238.8676 c -0.2101,-0.2416 -0.4989,-0.3834 -0.4989 -0.3834c -0.2889,-0.1418 -0.6040,-0.1418 -0.6040 -0.1418c -0.3466,-0.0000 -0.6618,0.1471 -0.6618 0.1471c -0.3151,0.1471 -0.5567,0.4832 -0.5567 0.4832c -0.2416,0.3361 -0.3887,0.8771 -0.3887 0.8771c -0.1471,0.5410 -0.1576,1.3393 -0.1576 1.3393c 0.3151,-0.3887 0.7353,-0.6145 0.7353 -0.6145c 0.4202,-0.2258 0.8298,-0.2258 0.8298 -0.2258c 0.8718,0.0000 1.3918,0.5147 1.3918 0.5147c 0.5200,0.5147 0.5200,1.5546 0.5200 1.5546c 0.0000,0.4832 -0.1576,0.8771 -0.1576 0.8771c -0.1576,0.3939 -0.4307,0.6775 -0.4307 0.6775c -0.2731,0.2836 -0.6303,0.4412 -0.6303 0.4412c -0.3571,0.1576 -0.7668,0.1576 -0.7668 0.1576c -0.4937,-0.0000 -0.9139,-0.1996 -0.9139 -0.1996c -0.4202,-0.1996 -0.7300,-0.6040 -0.7300 -0.6040c -0.3099,-0.4044 -0.4884,-1.0084 -0.4884 -1.0084c -0.1786,-0.6040 -0.1786,-1.4128 -0.1786 -1.4128c 0.0000,-1.0084 0.2101,-1.7174 0.2101 -1.7174c 0.2101,-0.7090 0.5672,-1.1555 0.5672 -1.1555c 0.3571,-0.4464 0.8141,-0.6513 0.8141 -0.6513c 0.4569,-0.2048 0.9611,-0.2048 0.9611 -0.2048c 0.5462,0.0000 0.9401,0.2048 0.9401 0.2048c 0.3939,0.2048 0.6775,0.5095 0.6775 0.5095ZM 20.1155,244.4454 ZM 22.7311,244.5714 c -1.0189,-0.0000 -1.5861,-0.9034 -1.5861 -0.9034c -0.5672,-0.9034 -0.5672,-2.5945 -0.5672 -2.5945c 0.0000,-1.6912 0.5672,-2.5735 0.5672 -2.5735c 0.5672,-0.8824 1.5861,-0.8824 1.5861 -0.8824c 1.0084,0.0000 1.5756,0.8824 1.5756 0.8824c 0.5672,0.8824 0.5672,2.5735 0.5672 2.5735c 0.0000,1.6912 -0.5672,2.5945 -0.5672 2.5945c -0.5672,0.9034 -1.5756,0.9034 -1.5756 0.9034ZM 22.7311,244.5714 ZM 22.7311,243.8782 c 0.2941,0.0000 0.5305,-0.1628 0.5305 -0.1628c 0.2363,-0.1628 0.4097,-0.5042 0.4097 -0.5042c 0.1733,-0.3414 0.2679,-0.8718 0.2679 -0.8718c 0.0945,-0.5305 0.0945,-1.2658 0.0945 -1.2658c 0.0000,-0.7353 -0.0945,-1.2605 -0.0945 -1.2605c -0.0945,-0.5252 -0.2679,-0.8561 -0.2679 -0.8561c -0.1733,-0.3309 -0.4097,-0.4884 -0.4097 -0.4884c -0.2363,-0.1576 -0.5305,-0.1576 -0.5305 -0.1576c -0.2941,-0.0000 -0.5357,0.1576 -0.5357 0.1576c -0.2416,0.1576 -0.4149,0.4884 -0.4149 0.4884c -0.1733,0.3309 -0.2679,0.8561 -0.2679 0.8561c -0.0945,0.5252 -0.0945,1.2605 -0.0945 1.2605c 0.0000,1.4706 0.3624,2.1376 0.3624 2.1376c 0.3624,0.6670 0.9506,0.6670 0.9506 0.6670Z"/></g><g stroke-linejoin="bevel" fill-opacity="1.0" fill="rgb(0,0,0)" stroke="rgb(0,0,0)" stroke-linecap="butt" stroke-miterlimit="10.0" stroke-opacity="0.0" stroke-width="0.0"><path d="M 14.8214,141.4454 ZM 16.0294,139.6492 c 0.0000,0.2836 0.1103,0.5147 0.1103 0.5147c 0.1103,0.2311 0.3046,0.4044 0.3046 0.4044c 0.1943,0.1733 0.4569,0.2679 0.4569 0.2679c 0.2626,0.0945 0.5672,0.0945 0.5672 0.0945c 0.5882,0.0000 0.9506,-0.3256 0.9506 -0.3256c 0.3624,-0.3256 0.3624,-0.8508 0.3624 -0.8508c 0.0000,-0.3256 -0.1471,-0.5567 -0.1471 -0.5567c -0.1471,-0.2311 -0.3992,-0.4044 -0.3992 -0.4044c -0.2521,-0.1733 -0.5830,-0.3151 -0.5830 -0.3151c -0.3309,-0.1418 -0.6880,-0.2889 -0.6880 -0.2889c -0.3992,0.2731 -0.6670,0.6355 -0.6670 0.6355c -0.2679,0.3624 -0.2679,0.8246 -0.2679 0.8246ZM 16.0294,139.6492 ZM 17.9202,137.7899 c 0.3361,-0.3046 0.5200,-0.6408 0.5200 -0.6408c 0.1838,-0.3361 0.1838,-0.7038 0.1838 -0.7038c 0.0000,-0.5042 -0.3046,-0.8456 -0.3046 -0.8456c -0.3046,-0.3414 -0.8613,-0.3414 -0.8613 -0.3414c -0.4727,-0.0000 -0.7773,0.2941 -0.7773 0.2941c -0.3046,0.2941 -0.3046,0.7878 -0.3046 0.7878c 0.0000,0.3046 0.1261,0.5200 0.1261 0.5200c 0.1261,0.2153 0.3414,0.3834 0.3414 0.3834c 0.2153,0.1681 0.4937,0.2994 0.4937 0.2994c 0.2784,0.1313 0.5830,0.2468 0.5830 0.2468ZM 17.9202,137.7899 ZM 15.2521,139.7332 c 0.0000,-0.3256 0.1103,-0.6040 0.1103 -0.6040c 0.1103,-0.2784 0.2836,-0.5042 0.2836 -0.5042c 0.1733,-0.2258 0.3992,-0.3992 0.3992 -0.3992c 0.2258,-0.1733 0.4674,-0.2994 0.4674 -0.2994v -0.0420 c -0.3676,-0.2626 -0.6513,-0.6355 -0.6513 -0.6355c -0.2836,-0.3729 -0.2836,-0.9086 -0.2836 -0.9086c 0.0000,-0.3887 0.1471,-0.7038 0.1471 -0.7038c 0.1471,-0.3151 0.3992,-0.5410 0.3992 -0.5410c 0.2521,-0.2258 0.5987,-0.3519 0.5987 -0.3519c 0.3466,-0.1261 0.7563,-0.1261 0.7563 -0.1261c 0.4412,0.0000 0.7878,0.1313 0.7878 0.1313c 0.3466,0.1313 0.5935,0.3676 0.5935 0.3676c 0.2468,0.2363 0.3782,0.5672 0.3782 0.5672c 0.1313,0.3309 0.1313,0.7195 0.1313 0.7195c 0.0000,0.2626 -0.0893,0.5042 -0.0893 0.5042c -0.0893,0.2416 -0.2206,0.4517 -0.2206 0.4517c -0.1313,0.2101 -0.2941,0.3782 -0.2941 0.3782c -0.1628,0.1681 -0.3204,0.2836 -0.3204 0.2836v 0.0420 c 0.2206,0.1261 0.4307,0.2889 0.4307 0.2889c 0.2101,0.1628 0.3729,0.3676 0.3729 0.3676c 0.1628,0.2048 0.2626,0.4674 0.2626 0.4674c 0.0998,0.2626 0.0998,0.5987 0.0998 0.5987c 0.0000,0.3782 -0.1576,0.7038 -0.1576 0.7038c -0.1576,0.3256 -0.4412,0.5672 -0.4412 0.5672c -0.2836,0.2416 -0.6828,0.3782 -0.6828 0.3782c -0.3992,0.1366 -0.8824,0.1366 -0.8824 0.1366c -0.4727,-0.0000 -0.8771,-0.1366 -0.8771 -0.1366c -0.4044,-0.1366 -0.6933,-0.3834 -0.6933 -0.3834c -0.2889,-0.2468 -0.4569,-0.5830 -0.4569 -0.5830c -0.1681,-0.3361 -0.1681,-0.7353 -0.1681 -0.7353ZM 20.0420,141.4454 ZM 22.6576,141.5714 c -1.0189,-0.0000 -1.5861,-0.9034 -1.5861 -0.9034c -0.5672,-0.9034 -0.5672,-2.5945 -0.5672 -2.5945c 0.0000,-1.6912 0.5672,-2.5735 0.5672 -2.5735c 0.5672,-0.8824 1.5861,-0.8824 1.5861 -0.8824c 1.0084,0.0000 1.5756,0.8824 1.5756 0.8824c 0.5672,0.8824 0.5672,2.5735 0.5672 2.5735c 0.0000,1.6912 -0.5672,2.5945 -0.5672 2.5945c -0.5672,0.9034 -1.5756,0.9034 -1.5756 0.9034ZM 22.6576,141.5714 ZM 22.6576,140.8782 c 0.2941,0.0000 0.5305,-0.1628 0.5305 -0.1628c 0.2363,-0.1628 0.4097,-0.5042 0.4097 -0.5042c 0.1733,-0.3414 0.2679,-0.8718 0.2679 -0.8718c 0.0945,-0.5305 0.0945,-1.2658 0.0945 -1.2658c 0.0000,-0.7353 -0.0945,-1.2605 -0.0945 -1.2605c -0.0945,-0.5252 -0.2679,-0.8561 -0.2679 -0.8561c -0.1733,-0.3309 -0.4097,-0.4884 -0.4097 -0.4884c -0.2363,-0.1576 -0.5305,-0.1576 -0.5305 -0.1576c -0.2941,-0.0000 -0.5357,0.1576 -0.5357 0.1576c -0.2416,0.1576 -0.4149,0.4884 -0.4149 0.4884c -0.1733,0.3309 -0.2679,0.8561 -0.2679 0.8561c -0.0945,0.5252 -0.0945,1.2605 -0.0945 1.2605c 0.0000,1.4706 0.3624,2.1376 0.3624 2.1376c 0.3624,0.6670 0.9506,0.6670 0.9506 0.6670Z"/></g><g stroke-linejoin="bevel" fill-opacity="1.0" fill="rgb(0,0,0)" stroke="rgb(0,0,0)" stroke-linecap="butt" stroke-miterlimit="10.0" stroke-opacity="0.0" stroke-width="0.0"><path d="M 10.0000,38.4454 ZM 10.8298,37.7311 h 1.5336 v -4.9370 h -1.2185 v -0.5567 c 0.4622,-0.0840 0.8036,-0.2048 0.8036 -0.2048c 0.3414,-0.1208 0.6145,-0.2889 0.6145 -0.2889h 0.6618 v 5.9874 h 1.3866 v 0.7143 h -3.7815 v -0.7143 ZM 15.2206,38.4454 ZM 17.8361,38.5714 c -1.0189,-0.0000 -1.5861,-0.9034 -1.5861 -0.9034c -0.5672,-0.9034 -0.5672,-2.5945 -0.5672 -2.5945c 0.0000,-1.6912 0.5672,-2.5735 0.5672 -2.5735c 0.5672,-0.8824 1.5861,-0.8824 1.5861 -0.8824c 1.0084,0.0000 1.5756,0.8824 1.5756 0.8824c 0.5672,0.8824 0.5672,2.5735 0.5672 2.5735c 0.0000,1.6912 -0.5672,2.5945 -0.5672 2.5945c -0.5672,0.9034 -1.5756,0.9034 -1.5756 0.9034ZM 17.8361,38.5714 ZM 17.8361,37.8782 c 0.2941,0.0000 0.5305,-0.1628 0.5305 -0.1628c 0.2363,-0.1628 0.4097,-0.5042 0.4097 -0.5042c 0.1733,-0.3414 0.2679,-0.8718 0.2679 -0.8718c 0.0945,-0.5305 0.0945,-1.2658 0.0945 -1.2658c 0.0000,-0.7353 -0.0945,-1.2605 -0.0945 -1.2605c -0.0945,-0.5252 -0.2679,-0.8561 -0.2679 -0.8561c -0.1733,-0.3309 -0.4097,-0.4884 -0.4097 -0.4884c -0.2363,-0.1576 -0.5305,-0.1576 -0.5305 -0.1576c -0.2941,-0.0000 -0.5357,0.1576 -0.5357 0.1576c -0.2416,0.1576 -0.4149,0.4884 -0.4149 0.4884c -0.1733,0.3309 -0.2679,0.8561 -0.2679 0.8561c -0.0945,0.5252 -0.0945,1.2605 -0.0945 1.2605c 0.0000,1.4706 0.3624,2.1376 0.3624 2.1376c 0.3624,0.6670 0.9506,0.6670 0.9506 0.6670ZM 20.4412,38.4454 ZM 23.0567,38.5714 c -1.0189,-0.0000 -1.5861,-0.9034 -1.5861 -0.9034c -0.5672,-0.9034 -0.5672,-2.5945 -0.5672 -2.5945c 0.0000,-1.6912 0.5672,-2.5735 0.5672 -2.5735c 0.5672,-0.8824 1.5861,-0.8824 1.5861 -0.8824c 1.0084,0.0000 1.5756,0.8824 1.5756 0.8824c 0.5672,0.8824 0.5672,2.5735 0.5672 2.5735c 0.0000,1.6912 -0.5672,2.5945 -0.5672 2.5945c -0.5672,0.9034 -1.5756,0.9034 -1.5756 0.9034ZM 23.0567,38.5714 ZM 23.0567,37.8782 c 0.2941,0.0000 0.5305,-0.1628 0.5305 -0.1628c 0.2363,-0.1628 0.4097,-0.5042 0.4097 -0.5042c 0.1733,-0.3414 0.2679,-0.8718 0.2679 -0.8718c 0.0945,-0.5305 0.0945,-1.2658 0.0945 -1.2658c 0.0000,-0.7353 -0.0945,-1.2605 -0.0945 -1.2605c -0.0945,-0.5252 -0.2679,-0.8561 -0.2679 -0.8561c -0.1733,-0.3309 -0.4097,-0.4884 -0.4097 -0.4884c -0.2363,-0.1576 -0.5305,-0.1576 -0.5305 -0.1576c -0.2941,-0.0000 -0.5357,0.1576 -0.5357 0.1576c -0.2416,0.1576 -0.4149,0.4884 -0.4149 0.4884c -0.1733,0.3309 -0.2679,0.8561 -0.2679 0.8561c -0.0945,0.5252 -0.0945,1.2605 -0.0945 1.2605c 0.0000,1.4706 0.3624,2.1376 0.3624 2.1376c 0.3624,0.6670 0.9506,0.6670 0.9506 0.6670Z"/></g><g stroke-linejoin="miter" fill-opacity="0.0" fill="rgb(0,0,0)" stroke="rgb(0,0,0)" stroke-linecap="square" stroke-miterlimit="10.0" stroke-opacity="1.0" stroke-width="0.9999999999999997"><path d="M 34.3697,550.0000 h 751.0557 "/></g><g stroke-linejoin="miter" fill-opacity="0.0" fill="rgb(0,0,0)" stroke="rgb(0,0,0)" stroke-linecap="butt" stroke-miterlimit="10.0" stroke-opacity="1.0" stroke-width="0.9999999999999997"><path d="M 34.3697,550.0000 v -2.0000 "/></g><g stroke-linejoin="miter" fill-opacity="0.0" fill="rgb(0,0,0)" stroke="rgb(0,0,0)" stroke-linecap="butt" stroke-miterlimit="10.0" stroke-opacity="1.0" stroke-width="0.9999999999999997"><path d="M 53.1461,550.0000 v -2.0000 "/></g><g stroke-linejoin="miter" fill-opacity="0.0" fill="rgb(0,0,0)" stroke="rgb(0,0,0)" stroke-linecap="butt" stroke-miterlimit="10.0" stroke-opacity="1.0" stroke-width="0.9999999999999997"><path d="M 71.9225,550.0000 v -2.0000 "/></g><g stroke-linejoin="miter" fill-opacity="0.0" fill="rgb(0,0,0)" stroke="rgb(0,0,0)" stroke-linecap="butt" stroke-miterlimit="10.0" stroke-opacity="1.0" stroke-width="0.9999999999999997"><path d="M 90.6989,550.0000 v -2.0000 "/></g><g stroke-linejoin="miter" fill-opacity="0.0" fill="rgb(0,0,0)" stroke="rgb(0,0,0)" stroke-linecap="butt" stroke-miterlimit="10.0" stroke-opacity="1.0" stroke-width="0.9999999999999997"><path d="M 109.4753,550.0000 v -2.0000 "/></g><g stroke-linejoin="miter" fill-opacity="0.0" fill="rgb(0,0,0)" stroke="rgb(0,0,0)" stroke-linecap="butt" stroke-miterlimit="10.0" stroke-opacity="1.0" stroke-width="0.9999999999999997"><path d="M 128.2517,550.0000 v -2.0000 "/></g><g stroke-linejoin="miter" fill-opacity="0.0" fill="rgb(0,0,0)" stroke="rgb(0,0,0)" stroke-linecap="butt" stroke-miterlimit="10.0" stroke-opacity="1.0" stroke-width="0.9999999999999997"><path d="M 147.0281,550.0000 v -2.0000 "/></g><g stroke-linejoin="miter" fill-opacity="0.0" fill="rgb(0,0,0)" stroke="rgb(0,0,0)" stroke-linecap="butt" stroke-miterlimit="10.0" stroke-opacity="1.0" stroke-width="0.9999999999999997"><path d="M 165.8045,550.0000 v -2.0000 "/></g><g stroke-linejoin="miter" fill-opacity="0.0" fill="rgb(0,0,0)" stroke="rgb(0,0,0)" stroke-linecap="butt" stroke-miterlimit="10.0" stroke-opacity="1.0" stroke-width="0.9999999999999997"><path d="M 184.5809,550.0000 v -2.0000 "/></g><g stroke-linejoin="miter" fill-opacity="0.0" fill="rgb(0,0,0)" stroke="rgb(0,0,0)" stroke-linecap="butt" stroke-miterlimit="10.0" stroke-opacity="1.0" stroke-width="0.9999999999999997"><path d="M 203.3573,550.0000 v -2.0000 "/></g><g stroke-linejoin="miter" fill-opacity="0.0" fill="rgb(0,0,0)" stroke="rgb(0,0,0)" stroke-linecap="butt" stroke-miterlimit="10.0" stroke-opacity="1.0" stroke-width="0.9999999999999997"><path d="M 222.1337,550.0000 v -2.0000 "/></g><g stroke-linejoin="miter" fill-opacity="0.0" fill="rgb(0,0,0)" stroke="rgb(0,0,0)" stroke-linecap="butt" stroke-miterlimit="10.0" stroke-opacity="1.0" stroke-width="0.9999999999999997"><path d="M 240.9101,550.0000 v -2.0000 "/></g><g stroke-linejoin="miter" fill-opacity="0.0" fill="rgb(0,0,0)" stroke="rgb(0,0,0)" stroke-linecap="butt" stroke-miterlimit="10.0" stroke-opacity="1.0" stroke-width="0.9999999999999997"><path d="M 259.6864,550.0000 v -2.0000 "/></g><g stroke-linejoin="miter" fill-opacity="0.0" fill="rgb(0,0,0)" stroke="rgb(0,0,0)" stroke-linecap="butt" stroke-miterlimit="10.0" stroke-opacity="1.0" stroke-width="0.9999999999999997"><path d="M 278.4628,550.0000 v -2.0000 "/></g><g stroke-linejoin="miter" fill-opacity="0.0" fill="rgb(0,0,0)" stroke="rgb(0,0,0)" stroke-linecap="butt" stroke-miterlimit="10.0" stroke-opacity="1.0" stroke-width="0.9999999999999997"><path d="M 297.2392,550.0000 v -2.0000 "/></g><g stroke-linejoin="miter" fill-opacity="0.0" fill="rgb(0,0,0)" stroke="rgb(0,0,0)" stroke-linecap="butt" stroke-miterlimit="10.0" stroke-opacity="1.0" stroke-width="0.9999999999999997"><path d="M 316.0156,550.0000 v -2.0000 "/></g><g stroke-linejoin="miter" fill-opacity="0.0" fill="rgb(0,0,0)" stroke="rgb(0,0,0)" stroke-linecap="butt" stroke-miterlimit="10.0" stroke-opacity="1.0" stroke-width="0.9999999999999997"><path d="M 334.7920,550.0000 v -2.0000 "/></g><g stroke-linejoin="miter" fill-opacity="0.0" fill="rgb(0,0,0)" stroke="rgb(0,0,0)" stroke-linecap="butt" stroke-miterlimit="10.0" stroke-opacity="1.0" stroke-width="0.9999999999999997"><path d="M 353.5684,550.0000 v -2.0000 "/></g><g stroke-linejoin="miter" fill-opacity="0.0" fill="rgb(0,0,0)" stroke="rgb(0,0,0)" stroke-linecap="butt" stroke-miterlimit="10.0" stroke-opacity="1.0" stroke-width="0.9999999999999997"><path d="M 372.3448,550.0000 v -2.0000 "/></g><g stroke-linejoin="miter" fill-opacity="0.0" fill="rgb(0,0,0)" stroke="rgb(0,0,0)" stroke-linecap="butt" stroke-miterlimit="10.0" stroke-opacity="1.0" stroke-width="0.9999999999999997"><path d="M 391.1212,550.0000 v -2.0000 "/></g><g stroke-linejoin="miter" fill-opacity="0.0" fill="rgb(0,0,0)" stroke="rgb(0,0,0)" stroke-linecap="butt" stroke-miterlimit="10.0" stroke-opacity="1.0" stroke-width="0.9999999999999997"><path d="M 409.8976,550.0000 v -2.0000 "/></g><g stroke-linejoin="miter" fill-opacity="0.0" fill="rgb(0,0,0)" stroke="rgb(0,0,0)" stroke-linecap="butt" stroke-miterlimit="10.0" stroke-opacity="1.0" stroke-width="0.9999999999999997"><path d="M 428.6740,550.0000 v -2.0000 "/></g><g stroke-linejoin="miter" fill-opacity="0.0" fill="rgb(0,0,0)" stroke="rgb(0,0,0)" stroke-linecap="butt" stroke-miterlimit="10.0" stroke-opacity="1.0" stroke-width="0.9999999999999997"><path d="M 447.4504,550.0000 v -2.0000 "/></g><g stroke-linejoin="miter" fill-opacity="0.0" fill="rgb(0,0,0)" stroke="rgb(0,0,0)" stroke-linecap="butt" stroke-miterlimit="10.0" stroke-opacity="1.0" stroke-width="0.9999999999999997"><path d="M 466.2268,550.0000 v -2.0000 "/></g><g stroke-linejoin="miter" fill-opacity="0.0" fill="rgb(0,0,0)" stroke="rgb(0,0,0)" stroke-linecap="butt" stroke-miterlimit="10.0" stroke-opacity="1.0" stroke-width="0.9999999999999997"><path d="M 485.0032,550.0000 v -2.0000 "/></g><g stroke-linejoin="miter" fill-opacity="0.0" fill="rgb(0,0,0)" stroke="rgb(0,0,0)" stroke-linecap="butt" stroke-miterlimit="10.0" stroke-opacity="1.0" stroke-width="0.9999999999999997"><path d="M 503.7795,550.0000 v -2.0000 "/></g><g stroke-linejoin="miter" fill-opacity="0.0" fill="rgb(0,0,0)" stroke="rgb(0,0,0)" stroke-linecap="butt" stroke-miterlimit="10.0" stroke-opacity="1.0" stroke-width="0.9999999999999997"><path d="M 522.5559,550.0000 v -2.0000 "/></g><g stroke-linejoin="miter" fill-opacity="0.0" fill="rgb(0,0,0)" stroke="rgb(0,0,0)" stroke-linecap="butt" stroke-miterlimit="10.0" stroke-opacity="1.0" stroke-width="0.9999999999999997"><path d="M 541.3323,550.0000 v -2.0000 "/></g><g stroke-linejoin="miter" fill-opacity="0.0" fill="rgb(0,0,0)" stroke="rgb(0,0,0)" stroke-linecap="butt" stroke-miterlimit="10.0" stroke-opacity="1.0" stroke-width="0.9999999999999997"><path d="M 560.1087,550.0000 v -2.0000 "/></g><g stroke-linejoin="miter" fill-opacity="0.0" fill="rgb(0,0,0)" stroke="rgb(0,0,0)" stroke-linecap="butt" stroke-miterlimit="10.0" stroke-opacity="1.0" stroke-width="0.9999999999999997"><path d="M 578.8851,550.0000 v -2.0000 "/></g><g stroke-linejoin="miter" fill-opacity="0.0" fill="rgb(0,0,0)" stroke="rgb(0,0,0)" stroke-linecap="butt" stroke-miterlimit="10.0" stroke-opacity="1.0" stroke-width="0.9999999999999997"><path d="M 597.6615,550.0000 v -2.0000 "/></g><g stroke-linejoin="miter" fill-opacity="0.0" fill="rgb(0,0,0)" stroke="rgb(0,0,0)" stroke-linecap="butt" stroke-miterlimit="10.0" stroke-opacity="1.0" stroke-width="0.9999999999999997"><path d="M 616.4379,550.0000 v -2.0000 "/></g><g stroke-linejoin="miter" fill-opacity="0.0" fill="rgb(0,0,0)" stroke="rgb(0,0,0)" stroke-linecap="butt" stroke-miterlimit="10.0" stroke-opacity="1.0" stroke-width="0.9999999999999997"><path d="M 635.2143,550.0000 v -2.0000 "/></g><g stroke-linejoin="miter" fill-opacity="0.0" fill="rgb(0,0,0)" stroke="rgb(0,0,0)" stroke-linecap="butt" stroke-miterlimit="10.0" stroke-opacity="1.0" stroke-width="0.9999999999999997"><path d="M 653.9907,550.0000 v -2.0000 "/></g><g stroke-linejoin="miter" fill-opacity="0.0" fill="rgb(0,0,0)" stroke="rgb(0,0,0)" stroke-linecap="butt" stroke-miterlimit="10.0" stroke-opacity="1.0" stroke-width="0.9999999999999997"><path d="M 672.7671,550.0000 v -2.0000 "/></g><g stroke-linejoin="miter" fill-opacity="0.0" fill="rgb(0,0,0)" stroke="rgb(0,0,0)" stroke-linecap="butt" stroke-miterlimit="10.0" stroke-opacity="1.0" stroke-width="0.9999999999999997"><path d="M 691.5435,550.0000 v -2.0000 "/></g><g stroke-linejoin="miter" fill-opacity="0.0" fill="rgb(0,0,0)" stroke="rgb(0,0,0)" stroke-linecap="butt" stroke-miterlimit="10.0" stroke-opacity="1.0" stroke-width="0.9999999999999997"><path d="M 710.3199,550.0000 v -2.0000 "/></g><g stroke-linejoin="miter" fill-opacity="0.0" fill="rgb(0,0,0)" stroke="rgb(0,0,0)" stroke-linecap="butt" stroke-miterlimit="10.0" stroke-opacity="1.0" stroke-width="0.9999999999999997"><path d="M 729.0962,550.0000 v -2.0000 "/></g><g stroke-linejoin="miter" fill-opacity="0.0" fill="rgb(0,0,0)" stroke="rgb(0,0,0)" stroke-linecap="butt" stroke-miterlimit="10.0" stroke-opacity="1.0" stroke-width="0.9999999999999997"><path d="M 747.8726,550.0000 v -2.0000 "/></g><g stroke-linejoin="miter" fill-opacity="0.0" fill="rgb(0,0,0)" stroke="rgb(0,0,0)" stroke-linecap="butt" stroke-miterlimit="10.0" stroke-opacity="1.0" stroke-width="0.9999999999999997"><path d="M 766.6490,550.0000 v -2.0000 "/></g><g stroke-linejoin="miter" fill-opacity="0.0" fill="rgb(0,0,0)" stroke="rgb(0,0,0)" stroke-linecap="butt" stroke-miterlimit="10.0" stroke-opacity="1.0" stroke-width="0.9999999999999997"><path d="M 785.4254,550.0000 v -2.0000 "/></g><g stroke-linejoin="miter" fill-opacity="0.0" fill="rgb(0,0,0)" stroke="rgb(0,0,0)" stroke-linecap="butt" stroke-miterlimit="10.0" stroke-opacity="1.0" stroke-width="0.9999999999999997"><path d="M 34.3697,550.0000 v -5.0000 "/></g><g stroke-linejoin="miter" fill-opacity="0.0" fill="rgb(0,0,0)" stroke="rgb(0,0,0)" stroke-linecap="butt" stroke-miterlimit="10.0" stroke-opacity="1.0" stroke-width="0.9999999999999997"><path d="M 222.1337,550.0000 v -5.0000 "/></g><g stroke-linejoin="miter" fill-opacity="0.0" fill="rgb(0,0,0)" stroke="rgb(0,0,0)" stroke-linecap="butt" stroke-miterlimit="10.0" stroke-opacity="1.0" stroke-width="0.9999999999999997"><path d="M 409.8976,550.0000 v -5.0000 "/></g><g stroke-linejoin="miter" fill-opacity="0.0" fill="rgb(0,0,0)" stroke="rgb(0,0,0)" stroke-linecap="butt" stroke-miterlimit="10.0" stroke-opacity="1.0" stroke-width="0.9999999999999997"><path d="M 597.6615,550.0000 v -5.0000 "/></g><g stroke-linejoin="miter" fill-opacity="0.0" fill="rgb(0,0,0)" stroke="rgb(0,0,0)" stroke-linecap="butt" stroke-miterlimit="10.0" stroke-opacity="1.0" stroke-width="0.9999999999999997"><path d="M 785.4254,550.0000 v -5.0000 "/></g><g stroke-linejoin="bevel" fill-opacity="1.0" fill="rgb(0,0,0)" stroke="rgb(0,0,0)" stroke-linecap="butt" stroke-miterlimit="10.0" stroke-opacity="0.0" stroke-width="0.0"><path d="M 27.9622,570.0000 ZM 28.3929,567.0378 h 2.4160 v 0.6618 h -2.4160 v -0.6618 ZM 31.2290,570.0000 ZM 32.0588,569.2857 h 1.5336 v -4.9370 h -1.2185 v -0.5567 c 0.4622,-0.0840 0.8036,-0.2048 0.8036 -0.2048c 0.3414,-0.1208 0.6145,-0.2889 0.6145 -0.2889h 0.6618 v 5.9874 h 1.3866 v 0.7143 h -3.7815 v -0.7143 ZM 36.4496,570.0000 ZM 39.0651,570.1261 c -1.0189,-0.0000 -1.5861,-0.9034 -1.5861 -0.9034c -0.5672,-0.9034 -0.5672,-2.5945 -0.5672 -2.5945c 0.0000,-1.6912 0.5672,-2.5735 0.5672 -2.5735c 0.5672,-0.8824 1.5861,-0.8824 1.5861 -0.8824c 1.0084,0.0000 1.5756,0.8824 1.5756 0.8824c 0.5672,0.8824 0.5672,2.5735 0.5672 2.5735c 0.0000,1.6912 -0.5672,2.5945 -0.5672 2.5945c -0.5672,0.9034 -1.5756,0.9034 -1.5756 0.9034ZM 39.0651,570.1261 ZM 39.0651,569.4328 c 0.2941,0.0000 0.5305,-0.1628 0.5305 -0.1628c 0.2363,-0.1628 0.4097,-0.5042 0.4097 -0.5042c 0.1733,-0.3414 0.2679,-0.8718 0.2679 -0.8718c 0.0945,-0.5305 0.0945,-1.2658 0.0945 -1.2658c 0.0000,-0.7353 -0.0945,-1.2605 -0.0945 -1.2605c -0.0945,-0.5252 -0.2679,-0.8561 -0.2679 -0.8561c -0.1733,-0.3309 -0.4097,-0.4884 -0.4097 -0.4884c -0.2363,-0.1576 -0.5305,-0.1576 -0.5305 -0.1576c -0.2941,-0.0000 -0.5357,0.1576 -0.5357 0.1576c -0.2416,0.1576 -0.4149,0.4884 -0.4149 0.4884c -0.1733,0.3309 -0.2679,0.8561 -0.2679 0.8561c -0.0945,0.5252 -0.0945,1.2605 -0.0945 1.2605c 0.0000,1.4706 0.3624,2.1376 0.3624 2.1376c 0.3624,0.6670 0.9506,0.6670 0.9506 0.6670Z"/></g><g stroke-linejoin="bevel" fill-opacity="1.0" fill="rgb(0,0,0)" stroke="rgb(0,0,0)" stroke-linecap="butt" stroke-miterlimit="10.0" stroke-opacity="0.0" stroke-width="0.0"><path d="M 218.3574,570.0000 ZM 218.7881,567.0378 h 2.4160 v 0.6618 h -2.4160 v -0.6618 ZM 221.6242,570.0000 ZM 222.3070,568.6450 c 0.2941,0.3046 0.6985,0.5357 0.6985 0.5357c 0.4044,0.2311 0.9926,0.2311 0.9926 0.2311c 0.3046,0.0000 0.5725,-0.1103 0.5725 -0.1103c 0.2679,-0.1103 0.4674,-0.3099 0.4674 -0.3099c 0.1996,-0.1996 0.3151,-0.4832 0.3151 -0.4832c 0.1155,-0.2836 0.1155,-0.6303 0.1155 -0.6303c 0.0000,-0.6933 -0.3887,-1.0819 -0.3887 -1.0819c -0.3887,-0.3887 -1.0399,-0.3887 -1.0399 -0.3887c -0.3466,-0.0000 -0.5935,0.1050 -0.5935 0.1050c -0.2468,0.1050 -0.5515,0.3046 -0.5515 0.3046l -0.4622,-0.2941 l 0.2206,-3.2248 h 3.3508 v 0.7458 h -2.5945 l -0.1786,1.9853 c 0.2416,-0.1261 0.4832,-0.1996 0.4832 -0.1996c 0.2416,-0.0735 0.5462,-0.0735 0.5462 -0.0735c 0.4307,0.0000 0.8088,0.1261 0.8088 0.1261c 0.3782,0.1261 0.6618,0.3834 0.6618 0.3834c 0.2836,0.2574 0.4464,0.6513 0.4464 0.6513c 0.1628,0.3939 0.1628,0.9401 0.1628 0.9401c 0.0000,0.5462 -0.1891,0.9664 -0.1891 0.9664c -0.1891,0.4202 -0.5042,0.7090 -0.5042 0.7090c -0.3151,0.2889 -0.7195,0.4412 -0.7195 0.4412c -0.4044,0.1523 -0.8456,0.1523 -0.8456 0.1523c -0.3992,-0.0000 -0.7300,-0.0788 -0.7300 -0.0788c -0.3309,-0.0788 -0.5987,-0.2048 -0.5987 -0.2048c -0.2679,-0.1261 -0.4832,-0.2889 -0.4832 -0.2889c -0.2153,-0.1628 -0.3834,-0.3414 -0.3834 -0.3414Z"/></g><g stroke-linejoin="bevel" fill-opacity="1.0" fill="rgb(0,0,0)" stroke="rgb(0,0,0)" stroke-linecap="butt" stroke-miterlimit="10.0" stroke-opacity="0.0" stroke-width="0.0"><path d="M 407.7495,570.0000 ZM 410.3650,570.1261 c -1.0189,-0.0000 -1.5861,-0.9034 -1.5861 -0.9034c -0.5672,-0.9034 -0.5672,-2.5945 -0.5672 -2.5945c 0.0000,-1.6912 0.5672,-2.5735 0.5672 -2.5735c 0.5672,-0.8824 1.5861,-0.8824 1.5861 -0.8824c 1.0084,0.0000 1.5756,0.8824 1.5756 0.8824c 0.5672,0.8824 0.5672,2.5735 0.5672 2.5735c 0.0000,1.6912 -0.5672,2.5945 -0.5672 2.5945c -0.5672,0.9034 -1.5756,0.9034 -1.5756 0.9034ZM 410.3650,570.1261 ZM 410.3650,569.4328 c 0.2941,0.0000 0.5305,-0.1628 0.5305 -0.1628c 0.2363,-0.1628 0.4097,-0.5042 0.4097 -0.5042c 0.1733,-0.3414 0.2679,-0.8718 0.2679 -0.8718c 0.0945,-0.5305 0.0945,-1.2658 0.0945 -1.2658c 0.0000,-0.7353 -0.0945,-1.2605 -0.0945 -1.2605c -0.0945,-0.5252 -0.2679,-0.8561 -0.2679 -0.8561c -0.1733,-0.3309 -0.4097,-0.4884 -0.4097 -0.4884c -0.2363,-0.1576 -0.5305,-0.1576 -0.5305 -0.1576c -0.2941,-0.0000 -0.5357,0.1576 -0.5357 0.1576c -0.2416,0.1576 -0.4149,0.4884 -0.4149 0.4884c -0.1733,0.3309 -0.2679,0.8561 -0.2679 0.8561c -0.0945,0.5252 -0.0945,1.2605 -0.0945 1.2605c 0.0000,1.4706 0.3624,2.1376 0.3624 2.1376c 0.3624,0.6670 0.9506,0.6670 0.9506 0.6670Z"/></g><g stroke-linejoin="bevel" fill-opacity="1.0" fill="rgb(0,0,0)" stroke="rgb(0,0,0)" stroke-linecap="butt" stroke-miterlimit="10.0" stroke-opacity="0.0" stroke-width="0.0"><path d="M 595.4346,570.0000 ZM 596.1174,568.6450 c 0.2941,0.3046 0.6985,0.5357 0.6985 0.5357c 0.4044,0.2311 0.9926,0.2311 0.9926 0.2311c 0.3046,0.0000 0.5725,-0.1103 0.5725 -0.1103c 0.2679,-0.1103 0.4674,-0.3099 0.4674 -0.3099c 0.1996,-0.1996 0.3151,-0.4832 0.3151 -0.4832c 0.1155,-0.2836 0.1155,-0.6303 0.1155 -0.6303c 0.0000,-0.6933 -0.3887,-1.0819 -0.3887 -1.0819c -0.3887,-0.3887 -1.0399,-0.3887 -1.0399 -0.3887c -0.3466,-0.0000 -0.5935,0.1050 -0.5935 0.1050c -0.2468,0.1050 -0.5515,0.3046 -0.5515 0.3046l -0.4622,-0.2941 l 0.2206,-3.2248 h 3.3508 v 0.7458 h -2.5945 l -0.1786,1.9853 c 0.2416,-0.1261 0.4832,-0.1996 0.4832 -0.1996c 0.2416,-0.0735 0.5462,-0.0735 0.5462 -0.0735c 0.4307,0.0000 0.8088,0.1261 0.8088 0.1261c 0.3782,0.1261 0.6618,0.3834 0.6618 0.3834c 0.2836,0.2574 0.4464,0.6513 0.4464 0.6513c 0.1628,0.3939 0.1628,0.9401 0.1628 0.9401c 0.0000,0.5462 -0.1891,0.9664 -0.1891 0.9664c -0.1891,0.4202 -0.5042,0.7090 -0.5042 0.7090c -0.3151,0.2889 -0.7195,0.4412 -0.7195 0.4412c -0.4044,0.1523 -0.8456,0.1523 -0.8456 0.1523c -0.3992,-0.0000 -0.7300,-0.0788 -0.7300 -0.0788c -0.3309,-0.0788 -0.5987,-0.2048 -0.5987 -0.2048c -0.2679,-0.1261 -0.4832,-0.2889 -0.4832 -0.2889c -0.2153,-0.1628 -0.3834,-0.3414 -0.3834 -0.3414Z"/></g><g stroke-linejoin="bevel" fill-opacity="1.0" fill="rgb(0,0,0)" stroke="rgb(0,0,0)" stroke-linecap="butt" stroke-miterlimit="10.0" stroke-opacity="0.0" stroke-width="0.0"><path d="M 780.8508,570.0000 ZM 781.6807,569.2857 h 1.5336 v -4.9370 h -1.2185 v -0.5567 c 0.4622,-0.0840 0.8036,-0.2048 0.8036 -0.2048c 0.3414,-0.1208 0.6145,-0.2889 0.6145 -0.2889h 0.6618 v 5.9874 h 1.3866 v 0.7143 h -3.7815 v -0.7143 ZM 786.0714,570.0000 ZM 788.6870,570.1261 c -1.0189,-0.0000 -1.5861,-0.9034 -1.5861 -0.9034c -0.5672,-0.9034 -0.5672,-2.5945 -0.5672 -2.5945c 0.0000,-1.6912 0.5672,-2.5735 0.5672 -2.5735c 0.5672,-0.8824 1.5861,-0.8824 1.5861 -0.8824c 1.0084,0.0000 1.5756,0.8824 1.5756 0.8824c 0.5672,0.8824 0.5672,2.5735 0.5672 2.5735c 0.0000,1.6912 -0.5672,2.5945 -0.5672 2.5945c -0.5672,0.9034 -1.5756,0.9034 -1.5756 0.9034ZM 788.6870,570.1261 ZM 788.6870,569.4328 c 0.2941,0.0000 0.5305,-0.1628 0.5305 -0.1628c 0.2363,-0.1628 0.4097,-0.5042 0.4097 -0.5042c 0.1733,-0.3414 0.2679,-0.8718 0.2679 -0.8718c 0.0945,-0.5305 0.0945,-1.2658 0.0945 -1.2658c 0.0000,-0.7353 -0.0945,-1.2605 -0.0945 -1.2605c -0.0945,-0.5252 -0.2679,-0.8561 -0.2679 -0.8561c -0.1733,-0.3309 -0.4097,-0.4884 -0.4097 -0.4884c -0.2363,-0.1576 -0.5305,-0.1576 -0.5305 -0.1576c -0.2941,-0.0000 -0.5357,0.1576 -0.5357 0.1576c -0.2416,0.1576 -0.4149,0.4884 -0.4149 0.4884c -0.1733,0.3309 -0.2679,0.8561 -0.2679 0.8561c -0.0945,0.5252 -0.0945,1.2605 -0.0945 1.2605c 0.0000,1.4706 0.3624,2.1376 0.3624 2.1376c 0.3624,0.6670 0.9506,0.6670 0.9506 0.6670Z"/></g><g stroke-linejoin="round" fill-opacity="0.0" fill="rgb(0,0,0)" stroke="rgb(0,0,255)" stroke-linecap="round" stroke-miterlimit="10.0" stroke-opacity="1.0" stroke-width="0.9999999999999997"><path d="M 10.0000,585.0000 h 20.0000 "/></g><g stroke-linejoin="bevel" fill-opacity="1.0" fill="rgb(0,0,0)" stroke="rgb(0,0,0)" stroke-linecap="butt" stroke-miterlimit="10.0" stroke-opacity="0.0" stroke-width="0.0"><path d="M 35.0735,586.6071 ZM 35.5882,588.0147 l 0.1891,0.0473 c 0.0000,0.0000 0.1996,0.0263 0.1996 0.0263c 0.4412,0.0000 0.7195,-0.3099 0.7195 -0.3099c 0.2784,-0.3099 0.4359,-0.7826 0.4359 -0.7826l 0.1155,-0.3782 l -2.0483,-5.1155 h 0.8929 l 1.0399,2.8256 c 0.1155,0.3361 0.2468,0.7090 0.2468 0.7090c 0.1313,0.3729 0.2468,0.7300 0.2468 0.7300h 0.0420 c 0.1155,-0.3466 0.2206,-0.7248 0.2206 -0.7248c 0.1050,-0.3782 0.2101,-0.7143 0.2101 -0.7143l 0.9139,-2.8256 h 0.8403 l -1.9223,5.5252 c -0.1366,0.3782 -0.3046,0.7038 -0.3046 0.7038c -0.1681,0.3256 -0.3992,0.5620 -0.3992 0.5620c -0.2311,0.2363 -0.5252,0.3729 -0.5252 0.3729c -0.2941,0.1366 -0.6828,0.1366 -0.6828 0.1366c -0.1786,-0.0000 -0.3256,-0.0263 -0.3256 -0.0263c -0.1471,-0.0263 -0.2731,-0.0788 -0.2731 -0.0788l 0.1681,-0.6828 h 0.0000 ZM 42.1008,586.6071 ZM 42.4580,581.6912 h 4.5063 v 0.6513 h -4.5063 v -0.6513 ZM 42.4580,581.6912 ZM 42.4580,583.9286 h 4.5063 v 0.6513 h -4.5063 v -0.6513 ZM 49.4433,586.6071 ZM 51.2605,583.9391 l -1.5441,-2.4370 h 0.9349 l 0.6828,1.1239 c 0.1155,0.2101 0.2416,0.4254 0.2416 0.4254c 0.1261,0.2153 0.2626,0.4254 0.2626 0.4254h 0.0420 c 0.1155,-0.2101 0.2311,-0.4254 0.2311 -0.4254c 0.1155,-0.2153 0.2311,-0.4254 0.2311 -0.4254l 0.6197,-1.1239 h 0.9034 l -1.5441,2.5315 l 1.6597,2.5735 h -0.9349 l -0.7458,-1.1870 l -0.2731,-0.4622 c 0.0000,0.0000 -0.2836,-0.4517 -0.2836 -0.4517h -0.0420 c -0.1366,0.2206 -0.2626,0.4464 -0.2626 0.4464c -0.1261,0.2258 -0.2521,0.4674 -0.2521 0.4674l -0.6933,1.1870 h -0.9034 ZM 54.1282,586.6071 ZM 56.3550,579.5693 h 0.7668 l 1.5966,4.0546 h -0.7563 l -0.6828,-1.8487 l -0.5147,-1.3971 h -0.0420 l -0.5252,1.3971 l -0.6828,1.8487 h -0.7563 ZM 59.3487,586.6071 ZM 59.7689,586.0924 c 0.7563,-0.7563 1.3445,-1.3655 1.3445 -1.3655c 0.5882,-0.6092 0.9874,-1.1292 0.9874 -1.1292c 0.3992,-0.5200 0.6092,-0.9559 0.6092 -0.9559c 0.2101,-0.4359 0.2101,-0.8456 0.2101 -0.8456c 0.0000,-0.5777 -0.3151,-0.9454 -0.3151 -0.9454c -0.3151,-0.3676 -0.9559,-0.3676 -0.9559 -0.3676c -0.4202,-0.0000 -0.7773,0.2363 -0.7773 0.2363c -0.3571,0.2363 -0.6513,0.5725 -0.6513 0.5725l -0.4937,-0.4937 c 0.4202,-0.4622 0.8929,-0.7405 0.8929 -0.7405c 0.4727,-0.2784 1.1345,-0.2784 1.1345 -0.2784c 0.9349,0.0000 1.4706,0.5410 1.4706 0.5410c 0.5357,0.5410 0.5357,1.4338 0.5357 1.4338c 0.0000,0.4727 -0.2048,0.9506 -0.2048 0.9506c -0.2048,0.4779 -0.5672,0.9874 -0.5672 0.9874c -0.3624,0.5095 -0.8613,1.0609 -0.8613 1.0609c -0.4989,0.5515 -1.0977,1.1712 -1.0977 1.1712c 0.2731,-0.0210 0.5672,-0.0420 0.5672 -0.0420c 0.2941,-0.0210 0.5567,-0.0210 0.5567 -0.0210h 1.9433 v 0.7458 h -4.3277 v -0.5147 Z"/></g></svg>